PathFileType	4	(X/Y/Z)	pose_F01_0-95.trc
DataRate	CameraRate	NumFrames	NumMarkers	Units	OrigDataRate	OrigDataStartFrame	OrigNumFrames
30	30	9	21	m	30	23	95
Frame#	Time	CHip			RHip			RKnee			RAnkle			RBigToe			RSmallToe			RHeel			LHip			LKnee			LAnkle			LBigToe			LSmallToe			LHeel			Neck			Nose			RShoulder			RElbow			RWrist			LShoulder			LElbow			LWrist			
		X1	Y1	Z1	X2	Y2	Z2	X3	Y3	Z3	X4	Y4	Z4	X5	Y5	Z5	X6	Y6	Z6	X7	Y7	Z7	X8	Y8	Z8	X9	Y9	Z9	X10	Y10	Z10	X11	Y11	Z11	X12	Y12	Z12	X13	Y13	Z13	X14	Y14	Z14	X15	Y15	Z15	X16	Y16	Z16	X17	Y17	Z17	X18	Y18	Z18	X19	Y19	Z19	X20	Y20	Z20	X21	Y21	Z21	
23	0.7666666666666667	-0.1578436238587796	1.8277051900867567	-0.5444250173834623	-0.17219281146770593	1.8257485077291755	-0.4797379464722535	-0.18277824599104384	1.697934469999313	-0.4735712196185369	-0.17525730537421033	1.5750324024962856	-0.45925591469693333	-0.2062605375164605	1.550197639456558	-0.4984592528366777	-0.18440996468831408	1.5499937302422153	-0.4960251704446668	-0.16469253495761962	1.567380976563739	-0.4475260994424586	-0.14360450043867526	1.827637141211561	-0.6030757901291449	-0.17233227731459488	1.7112325556544485	-0.5879887915957368	-0.1522380536407752	1.5793958738660763	-0.562463535439646	-0.18360957629041713	1.5458798712913642	-0.5867052266634473	-0.1722265432382427	1.5510106663726324	-0.6028909898628441	-0.13767402180122654	1.5703315014985229	-0.5464798669817866	-1.7663929734228265	1.8896940099513735	1.2076875939680964	-0.1882184225677233	2.037528630229517	-0.6034408577488769	-0.16996554086610358	1.9793441277520072	-0.4990196920962833	-0.2079573952281251	1.9191478639483803	-0.48606130124898433	-1.668955595880247	1.8832142231670634	1.0261350337856625	-1.645567319590709	1.8880649823326303	1.007726188592828	-0.1088608723255514	1.8966075197260739	-0.6782558684237817	-0.11031549737914895	1.8235210997423354	-0.6767608969868608
24	0.8	-0.15665471500340636	1.8276745016212104	-0.5498663265642498	-0.16823324118772365	1.8257591289275168	-0.48424237568019884	-0.1828838206057914	1.6965114753335726	-0.47327168234577294	-0.17525730537421033	1.5750324024962856	-0.45925591469693333	-0.2062605375164605	1.550197639456558	-0.4984592528366777	-0.18440996468831408	1.5499937302422153	-0.4960251704446668	-0.16469253495761962	1.567380976563739	-0.4475260994424586	-0.1414373686089768	1.8274538337513715	-0.605482110757849	-0.15716113093446824	1.7091579974590936	-0.5825475336142031	-0.1321598234552095	1.5846688302892182	-0.5719098871849808	-0.16244368697825512	1.5499653024818854	-0.5918362810471202	-0.14854630606861488	1.5585199299447652	-0.606764413572498	-0.12214781745999737	1.5739926549363015	-0.5638003326922616	-1.7653976836186354	1.8896818874692825	1.2063951053787123	-0.18515038327394215	2.037770294213374	-0.6027277301799309	-0.1681087985282202	1.9779855713504757	-0.5011724350173914	-0.2020855238794074	1.9117695332987048	-0.48356230912709236	-1.6931961226682588	1.8852291862522075	1.0667773429285825	-1.6239561251261663	1.887875381895146	0.9713094034233006	-0.10410731604392304	1.896798709475861	-0.6830671996515932	-0.10806637611312876	1.8236553217200953	-0.6791654622568676
25	0.8333333333333334	-0.15482451389691698	1.827573441423883	-0.552361816413709	-0.16816728169879003	1.8275335238250967	-0.4934911518992567	-0.17702422075837979	1.697901564896222	-0.48008731478360683	-0.17525730537421033	1.5750324024962856	-0.45925591469693333	-0.2062605375164605	1.550197639456558	-0.4984592528366777	-0.18440996468831408	1.5499937302422153	-0.4960251704446668	-0.16469253495761962	1.567380976563739	-0.4475260994424586	-0.13715478036443163	1.8277675638318234	-0.610306631688086	-0.14739238271480212	1.7080758026863616	-0.5884648431810464	-0.11971616367346442	1.5797929539753963	-0.5760000267260126	-0.15626125520758982	1.5490320422639776	-0.5981611048898821	-0.14621670307848	1.5560438039459092	-0.608535367874919	-0.11391354973269836	1.5713580898243455	-0.5718522389792486	-1.7630733330904187	1.88983063198461	1.2036321398239112	-0.18095505922030217	2.040235974616089	-0.6074810409245585	-0.16317791240384905	1.9766417349984426	-0.5022033061469892	-0.19340534781878863	1.9075998182193996	-0.4886399897432616	-0.2065711567294695	1.965926837474563	-0.5478489577830445	-0.1197906154316679	1.9802308949032859	-0.6755031176481223	-0.10077968387827957	1.897032383728252	-0.691037306910592	-0.10492235691015424	1.8223409325844042	-0.6866659968484904
26	0.8666666666666667	-0.144844577717558	1.827977269687751	-0.5673478073496888	-0.16164232817004132	1.8263299077282351	-0.5093047421552929	-0.17456857996734246	1.6995847769519026	-0.4919294733270424	-0.17525730537421033	1.5750324024962856	-0.45925591469693333	-0.2062605375164605	1.550197639456558	-0.4984592528366777	-0.18440996468831408	1.5499937302422153	-0.4960251704446668	-0.16469253495761962	1.567380976563739	-0.4475260994424586	-0.12854891012987388	1.828224386837829	-0.6197531279424843	-0.13749561751640982	1.7047791143677307	-0.5948755729025468	-0.12081112167866714	1.5783481275173457	-0.5787699028122164	-0.15836795068189177	1.548881389252916	-0.595852215569057	-0.14626105185924942	1.5559296307464308	-0.6083590218425919	-0.11418563206932718	1.5699645133528644	-0.5713820440654672	-1.7523678050804603	1.8896963175473032	1.1851746867895632	-0.17969666512465687	2.0401312396009468	-0.6129642840824213	-0.1631724483575434	1.9734116363164462	-0.5108559432212054	-0.18259791280443874	1.9030483798427773	-0.47837247413728623	-0.2006801818380575	1.9551783111457615	-0.5347706066460991	-0.11614706308918842	1.9811124806792666	-0.6834924388985808	-0.09312678956576285	1.8982791019570948	-0.6953665781954754	-0.09053997501739598	1.8231847479619958	-0.698121934872209
27	0.9	-0.1386468201476107	1.8265327467540642	-0.5742654161568105	-0.15361056888934177	1.8252355029996843	-0.5183463327565969	-0.17820724052214842	1.7003020261487802	-0.5101368195192597	-0.17525730537421033	1.5750324024962856	-0.45925591469693333	-0.2062605375164605	1.550197639456558	-0.4984592528366777	-0.18440996468831408	1.5499937302422153	-0.4960251704446668	-0.16469253495761962	1.567380976563739	-0.4475260994424586	-0.11851643715466742	1.8283462534048138	-0.6346976245047938	-0.13217244829961625	1.7048124653481433	-0.6046544225709095	-0.1204863409150015	1.579760790253222	-0.5795683800119082	-0.15685749297288573	1.550431476360659	-0.6021486311119144	-0.1439595515954279	1.555383929173128	-0.6106502151689174	-0.1118457388390503	1.571429111801848	-0.5743422791749279	-1.7393215712669963	1.8875411979314871	1.163607122123713	-0.17630517120708555	2.0401010144545606	-0.6206622389285635	-0.1629661907621948	1.9737142067185354	-0.5197177564339847	-0.17760074158346742	1.9014548580030843	-0.4704422593458333	-0.19836879556712503	1.920928756479281	-0.5106633291698444	-1.558514558811899	1.8827624847852118	0.8673236187979027	-0.0848664500832936	1.8947053723386402	-0.7076297163310498	-0.08405896806749381	1.8237109413241916	-0.7174407348433361
28	0.9333333333333333	-0.13643336067444908	1.825029758273198	-0.5765556073128669	-0.1513043411963036	1.8249589371829842	-0.5208496114208437	-0.1749021036152309	1.7027012067847822	-0.5184738469935101	-0.16747020152917355	1.5780557392108268	-0.47669941207058986	-0.2062605375164605	1.550197639456558	-0.4984592528366777	-0.18440996468831408	1.5499937302422153	-0.4960251704446668	-0.15829190527526088	1.5673691969540275	-0.4725064776088732	-0.11626642255967384	1.8270489455188257	-0.6369429808886706	-0.1298883946371725	1.7047552793616325	-0.6070334544914214	-0.11889374109405912	1.5827427727340861	-0.5863163272507088	-0.15594230777371496	1.5504685972821333	-0.5988128354310142	-0.14293685171463624	1.55724046672411	-0.6080997343979483	-0.11275294423602936	1.5714683194132293	-0.5776092229787587	-0.13409293046202084	1.9750615634556248	-0.6024873334537576	-0.16993818199158184	2.041638495810928	-0.6275264201361159	-0.15989348728536715	1.9740814410893492	-0.527451512407994	-0.16764399219552326	1.9047775775936948	-0.4735914172270699	-0.19605740929619256	1.8866792018128007	-0.48655605169358956	-0.10519009510896049	1.9792743483869417	-0.6948764148067371	-0.08018713150913859	1.9046800182769403	-0.7138122150419768	-0.07189674797259196	1.8372820012779851	-0.7316604428622048
29	0.9666666666666667	-0.1321423204385231	1.8285449470713149	-0.5814740586723699	-0.14933455427590403	1.8270536335196748	-0.5233328369999928	-0.16479162642032671	1.7033563363510256	-0.5295076631999889	-0.15334350978795663	1.5783385509866277	-0.491997298701766	-0.18914812904664216	1.54953865083438	-0.5205180090948754	-0.18440996468831408	1.5499937302422153	-0.4960251704446668	-0.14159211223865367	1.5674326910791987	-0.49048682176247704	-0.1134122157744187	1.8290408454469076	-0.6363315887351911	-0.1280986832463357	1.7102077705629761	-0.6095749153940131	-0.11901319686560527	1.584067680330603	-0.5861002736840897	-0.15432411992096165	1.5506355769070277	-0.6001411612901904	-0.14212627941172667	1.557529263840484	-0.6126717022697409	-0.1116404777689697	1.5730330960208527	-0.5750927943655897	-0.12983664130673142	1.97502434138381	-0.6070468934584635	-0.16655899200836866	2.041734423915329	-0.6351173103850893	-0.15871206420841807	1.9727658737625589	-0.5326471709813899	-0.1713644606992241	1.9028020942592887	-0.47732697755821857	-0.21322544281080452	1.8550616704336444	-0.4663540046123084	-0.09829513407179524	1.9808088335254663	-0.6902563643366207	-0.06852931227766072	1.901988474808925	-0.7132774552382677	-0.07193155353647128	1.8351966745494928	-0.746988420909122
30	1.0	-0.12815882262857634	1.8272791424900883	-0.5859844953829236	-0.14843073101361853	1.8229971793081268	-0.5284907760014278	-0.15840072619092488	1.6986369868554425	-0.5362592070356004	-0.14915449350635102	1.5751260714294313	-0.49662711762814093	-0.18685705488718474	1.5476151899142998	-0.5239311649189691	-0.18390570039917034	1.5499796690243643	-0.501544492682823	-0.13870575139282162	1.5662286969351502	-0.4981342829118728	-0.11127938079776074	1.8277034875871954	-0.638427308111213	-0.12332634965107862	1.7077962792067247	-0.618957851427009	-0.12044102302215016	1.5879303702271856	-0.5888967168198732	-0.15459214597260335	1.557785288134007	-0.6088570370241306	-0.1409824648429229	1.5614246827047058	-0.6188179640544993	-0.10976515739328925	1.574405693120789	-0.5771251573731069	-0.12569162816132365	1.9755710468051708	-0.6116993037198057	-0.16308428269394565	2.041598527969285	-0.6428568125917546	-0.16049578291186328	1.9716290065978408	-0.5391666910469342	-0.17471348631755557	1.8903348048446347	-0.47652790049236676	-0.20979341624028747	1.8261891205221263	-0.4312702932750778	-1.622286783200747	1.8862517495414948	0.9755461202181692	-0.06403854439480958	1.900372483836102	-0.7060922418982697	-0.07714885149009663	1.834979123095357	-0.7419584564408512
31	1.0333333333333334	-0.12581992918032636	1.8260694718125192	-0.5882028347482658	-0.14625881166954174	1.8227249675967807	-0.530886739091092	-0.16057770450088105	1.6997545486852024	-0.5340728005170045	-0.14950649771214322	1.5766013713244034	-0.49626240303726543	-0.18694688675325663	1.5481063120134848	-0.5239352480687792	-0.1840024873229962	1.5501583967434045	-0.5014467961868789	-0.13875664208166108	1.5662655881993766	-0.49807052599310375	-0.10592878783576731	1.8289662049074613	-0.6402091501209619	-0.12705649650751233	1.713468224313101	-0.6367444315318455	-0.10932962943606009	1.5917247175597231	-0.5967919615362528	-0.1309423803249603	1.5645191216291596	-0.6427400188148042	-0.11545551094731404	1.5698401800452468	-0.6510718577970463	-0.10782872916030163	1.5791198904998835	-0.579601365845798	-0.12445185684606797	1.9726114697858574	-0.6168276973756028	-0.1546385315535331	2.0386018764431606	-0.6513330608398827	-0.1574104318914812	1.9697920502098618	-0.5467438575505339	-0.17362306790685902	1.8905816321569346	-0.48215083280928117	-0.19284696282714872	1.8194509790409918	-0.4361228856511743	-1.6289511958384137	1.884044386927305	0.9888228587512741	-0.059234866323635706	1.8976766553215865	-0.707364555984622	-0.08185371579884569	1.8360493221980703	-0.737177769162519
